<?xml version="1.0" encoding="UTF-8" standalone="no"?>
<!-- Generator: Adobe Illustrator 28.0.0, SVG Export Plug-In . SVG Version: 6.00 Build 0)  -->

<svg
   version="1.1"
   id="Layer_1"
   x="0px"
   y="0px"
   viewBox="0 0 96.000002 96"
   xml:space="preserve"
   width="96"
   height="96"
   xmlns="http://www.w3.org/2000/svg"
   xmlns:svg="http://www.w3.org/2000/svg"><defs
   id="defs1"><clipPath
     clipPathUnits="userSpaceOnUse"
     id="clipPath4"><rect
       style="display:inline;fill:#000000;stroke-width:3.37982"
       id="rect4"
       width="140.18999"
       height="41.156185"
       x="-2.6753445"
       y="-0.1546881"
       ry="0"
       transform="rotate(45)" /></clipPath></defs>
<style
   type="text/css"
   id="style1">
	.st0{fill:#FFFFFF;}
</style>
<rect
   style="fill:#000000;stroke-width:3.97666"
   id="rect2"
   width="96"
   height="96"
   x="0"
   y="0"
   clip-path="url(#clipPath4)" /><path
   class="st0"
   d="m 19.333356,71.152929 c 6.962161,6.962161 18.214657,6.910779 25.202508,-0.07707 5.600557,-5.600557 6.730945,-13.924321 3.416854,-20.578194 -0.488122,-0.745029 -1.130388,-0.565194 -1.464366,-0.231217 -0.282597,0.282598 -1.284533,1.335912 -2.312159,2.363537 4.238955,2.748898 2.697517,5.729011 2.697517,5.729011 -0.899172,2.02956 -0.462431,3.23702 -0.462431,3.23702 0.359668,1.901106 -0.847791,0.693647 -0.847791,0.693647 -1.181769,-1.335913 -0.616575,-3.23702 -0.616575,-3.23702 0.796409,-3.057185 -1.541438,-4.316026 -2.594754,-4.701386 -0.924863,0.719339 -1.824034,0.950554 -2.491991,0.899173 2.491991,3.057184 4.316026,7.090614 -0.539503,11.946143 -1.387294,1.387294 -3.005803,2.029559 -4.675695,2.106632 -0.179834,0.43674 -1.053315,2.183703 -3.468234,3.211328 0,0 -1.387294,-0.719338 -2.132323,-4.752767 -1.284532,-0.719337 -2.491991,-1.669891 -3.545307,-2.723206 -1.053316,-1.053317 -1.978178,-2.286467 -2.723207,-3.545308 -4.033428,-0.745028 -4.752766,-2.132322 -4.752766,-2.132322 1.053316,-2.44061 2.774588,-3.2884 3.211328,-3.468234 0.05138,-1.695582 0.719338,-3.288401 2.106632,-4.675695 4.855529,-4.855529 8.863268,-3.005804 11.971834,-0.513812 -0.07707,-0.847792 0.308287,-2.00387 1.490056,-3.185639 1.695581,-1.695582 3.082874,-3.031496 3.493924,-3.442546 0.333978,-0.333978 0.513813,-0.976244 -0.231216,-1.464365 -6.67956,-3.339779 -15.003324,-2.209392 -20.603882,3.391166 -7.013539,6.962161 -7.039232,18.240347 -0.128453,25.151126 z"
   id="path1"
   style="stroke-width:0.36332" />
</svg>
