<?xml version="1.0" encoding="UTF-8" standalone="no"?>
<!-- Created with Inkscape (http://www.inkscape.org/) -->

<svg
   width="150"
   height="80"
   viewBox="0 0 39.687499 21.166667"
   version="1.1"
   id="svg1"
   xmlns="http://www.w3.org/2000/svg"
   xmlns:svg="http://www.w3.org/2000/svg">
  <defs
     id="defs1" />
  <g
     id="layer1">
    <g
       id="g5"
       transform="matrix(0.2993367,0,0,0.2993367,-2.0856448,-43.569931)">
      <g
         id="text1"
         style="font-size:28.2222px;line-height:1;letter-spacing:13.2292px;stroke-width:0.264583"
         aria-label="DREAM&#10;HOUSE">
        <path
           style="font-family:Sunbather;-inkscape-font-specification:Sunbather;fill:#1c0a00"
           d="m 7.121191,166.31226 h 3.132664 V 146.55672 H 7.121191 c 0.423333,0.62088 0.6491106,1.32644 0.6491106,2.82222 v 14.1111 c 0,1.49577 -0.2257776,2.20133 -0.6491106,2.82222 z m 8.494882,0 c 4.402664,-0.98778 7.365995,-5.02356 7.365995,-9.93422 0,-4.82599 -2.370665,-8.72066 -7.365995,-9.82132 3.471331,1.72155 4.600219,5.55977 4.600219,9.87777 0,4.37444 -1.185332,8.21266 -4.600219,9.87777 z m 36.004554,0.22577 c -0.705555,-0.53622 -0.959554,-1.43933 -1.128888,-2.93511 l -0.282222,-2.37066 c -0.310444,-2.65289 -1.41111,-3.95111 -3.894663,-4.43089 0.790221,0.59267 1.100665,1.60867 1.269999,3.27378 l 0.197555,2.17311 c 0.282222,3.13266 1.523999,4.12044 3.838219,4.28977 z m -13.405545,-0.22577 h 3.809997 c -0.451555,-0.62089 -0.64911,-1.32645 -0.64911,-2.82222 v -16.93332 h -3.160887 c 0.423333,0.62088 0.649111,1.32644 0.649111,2.82222 v 14.1111 c 0,1.49577 -0.225778,2.20133 -0.649111,2.82222 z m 7.732883,-19.75554 c 1.326443,0.56444 2.116665,2.08844 2.116665,4.34621 0,2.20134 -0.705555,3.556 -1.749776,4.14867 2.709331,-0.45156 4.289774,-2.11667 4.289774,-4.318 0,-2.25777 -1.636888,-3.86644 -4.656663,-4.17688 z m 20.679864,19.75554 h 3.132664 v -19.75554 h -3.132664 c 0.423333,0.62088 0.64911,1.32644 0.64911,2.82222 v 14.1111 c 0,1.49577 -0.225777,2.20133 -0.64911,2.82222 z m 8.692437,0 h 3.668886 v -3.66889 c -0.761999,1.63689 -2.173109,3.048 -3.668886,3.66889 z m 0,-19.75554 c 1.552221,0.53622 2.935109,1.86266 3.668886,3.4431 v -3.4431 z m 28.045864,19.75554 h 3.81 c -0.39511,-0.59267 -0.64911,-1.10067 -1.21356,-2.56822 l -6.773326,-17.63888 -1.382888,3.41489 5.277554,13.80065 c 0.56444,1.46756 0.64911,2.22956 0.28222,2.99156 z m 19.32519,-17.61066 6.99911,16.56643 1.49578,-2.76577 -6.71689,-15.94554 h -2.90688 c 0.39511,0.47977 0.64911,0.98777 1.12888,2.14488 z m 12.75644,17.61066 h 3.81 c -0.42334,-0.62089 -0.64911,-1.32645 -0.64911,-2.82222 v -14.1111 c 0,-1.49578 0.22577,-2.20134 0.64911,-2.82222 h -3.16089 v 16.93332 c 0,1.49577 -0.19756,2.20133 -0.64911,2.82222 z"
           id="path5" />
        <path
           style="font-family:Sunbather;-inkscape-font-specification:Sunbather;fill:#1c0a00"
           d="m 7.121191,194.54644 h 3.781775 c -0.423333,-0.62088 -0.649111,-1.32644 -0.649111,-2.82222 v -14.1111 c 0,-1.49577 0.225778,-2.20133 0.649111,-2.82222 H 7.121191 c 0.423333,0.62089 0.6491106,1.32645 0.6491106,2.82222 v 14.1111 c 0,1.49578 -0.2257776,2.20134 -0.6491106,2.82222 z m 11.627547,0 h 3.781774 c -0.423333,-0.62088 -0.64911,-1.32644 -0.64911,-2.82222 v -14.1111 c 0,-1.49577 0.225777,-2.20133 0.64911,-2.82222 h -3.781774 c 0.423333,0.62089 0.64911,1.32645 0.64911,2.82222 v 14.1111 c 0,1.49578 -0.225777,2.20134 -0.64911,2.82222 z m 30.049606,0.31045 c 4.684885,-1.21356 7.365994,-5.10822 7.365994,-10.18822 0,-5.16466 -2.539998,-9.00288 -7.365994,-10.18821 3.443108,1.63689 4.628441,5.47511 4.628441,10.18821 0,4.71311 -1.382888,8.52311 -4.628441,10.18822 z m -11.03488,-10.18822 c 0,5.16467 2.539998,9.00289 7.365994,10.18822 -3.443108,-1.63689 -4.628441,-5.47511 -4.628441,-10.18822 0,-4.7131 1.382888,-8.5231 4.628441,-10.18821 -4.684885,1.21355 -7.365994,5.10822 -7.365994,10.18821 z m 40.378912,10.16 c -3.160886,-0.98778 -3.555997,-2.62467 -3.555997,-6.49111 v -10.72444 c 0,-1.49577 0.197556,-2.20133 0.649111,-2.82222 h -3.809997 c 0.423333,0.62089 0.64911,1.32645 0.64911,2.82222 v 10.86555 c 0,3.92289 1.608666,6.15244 6.067773,6.35 z M 110.87308,178.3469 v -3.61244 c -0.22578,0.22578 -0.62089,0.39511 -1.10067,0.39511 -0.56444,0 -1.46755,-0.22578 -2.17311,-0.45155 1.46756,0.98777 2.51178,2.22955 3.27378,3.66888 z M 99.443088,194.49 c 0.253999,-0.22578 0.677332,-0.39511 1.213552,-0.39511 0.79022,0 1.46756,0.31044 2.25778,0.47978 -1.66511,-1.04422 -2.65289,-2.286 -3.471332,-3.97933 z m 0.451555,-14.98599 c 0,2.93511 2.229557,4.37444 5.475107,6.06777 2.37066,1.21356 4.20511,2.45534 4.20511,5.10822 0,1.49578 -0.62089,3.16089 -2.14489,3.97933 2.70933,-0.79022 4.12044,-2.99155 4.12044,-5.4751 0,-2.82222 -1.80622,-4.318 -4.85422,-5.92667 -3.13266,-1.66511 -4.93888,-2.73755 -4.93888,-5.33399 0,-1.46756 0.73378,-2.62467 1.63689,-3.302 -2.34245,0.87489 -3.499557,2.82222 -3.499557,4.88244 z m 27.142757,15.04243 h 3.13267 V 174.7909 h -3.13267 c 0.42334,0.62089 0.64912,1.32645 0.64912,2.82222 v 14.1111 c 0,1.49578 -0.22578,2.20134 -0.64912,2.82222 z m 8.69244,0 h 3.66889 v -3.66888 c -0.762,1.63689 -2.17311,3.048 -3.66889,3.66888 z m 0,-19.75554 c 1.55222,0.53623 2.93511,1.86267 3.66889,3.44311 v -3.44311 z"
           id="path6" />
      </g>
      <path
         style="font-size:8.81944px;line-height:1;font-family:'Castoro Titling';-inkscape-font-specification:'Castoro Titling';letter-spacing:1.32292px;fill:#603601;stroke-width:0.264583"
         d="m 20.572628,212.73564 -0.220486,-0.0176 v 2.13431 q 0,0.26458 0.03528,0.38805 0.03528,0.11466 0.167569,0.14993 0.141111,0.0265 0.458611,0.0529 0.0088,0.0882 0,0.17639 -0.123472,0 -0.326319,-0.009 -0.194028,0 -0.388055,0 -0.185209,-0.009 -0.308681,-0.009 -0.114652,0 -0.30868,0.009 -0.185208,0 -0.370417,0 -0.185208,0.009 -0.30868,0.009 -0.0088,-0.0882 0,-0.17639 0.30868,-0.0265 0.440972,-0.0529 0.141111,-0.0265 0.167569,-0.12347 0.03528,-0.10583 0.03528,-0.33514 v -4.74486 q 0,-0.26458 -0.03528,-0.37923 -0.03528,-0.11466 -0.176388,-0.14993 -0.132292,-0.0353 -0.432153,-0.0529 -0.0088,-0.0882 0,-0.17639 0.123472,0 0.30868,0.009 0.194028,0 0.379236,0.009 0.194028,0 0.308681,0 0.114652,0 0.343958,0 0.229305,-0.009 0.458611,-0.009 0.229305,-0.009 0.335138,-0.009 0.502709,0 0.934861,0.14993 0.432153,0.14993 0.696736,0.48507 0.273402,0.32632 0.273402,0.88195 0,0.65263 -0.388055,1.05833 -0.388055,0.40569 -1.040694,0.60854 v 0.0265 q 0.123472,0.0617 0.229306,0.15875 0.114652,0.0882 0.255763,0.26458 0.105834,0.13229 0.299861,0.42333 0.202847,0.29105 0.423333,0.635 0.229306,0.33514 0.414514,0.62618 0.202847,0.3175 0.343958,0.45861 0.141111,0.1323 0.308681,0.17639 0.167569,0.0353 0.449791,0.0617 0.0088,0.0882 0,0.17639 -0.123472,0 -0.3175,-0.009 -0.194027,0 -0.379236,0 -0.176388,-0.009 -0.273402,-0.009 -0.105834,0 -0.202847,0.009 -0.09701,0 -0.194028,0 -0.09701,-0.16757 -0.282222,-0.45861 -0.185208,-0.29986 -0.414514,-0.65264 -0.229305,-0.35278 -0.458611,-0.68792 -0.220486,-0.34396 -0.396874,-0.58208 -0.149931,-0.21167 -0.264584,-0.30868 -0.114652,-0.097 -0.246944,-0.13229 -0.123472,-0.0353 -0.335139,-0.0529 z m -0.220486,-0.28222 q 0.114653,0.0176 0.202847,0.0265 0.0882,0 0.16757,0 0.705555,0 1.128888,-0.34396 0.432153,-0.35278 0.432153,-1.09361 0,-0.66146 -0.361597,-1.00542 -0.361597,-0.35277 -1.067153,-0.35277 -0.220486,0 -0.502708,0.0264 z m 5.97076,3.16618 q -0.0088,-0.0882 0,-0.17639 0.299861,-0.0265 0.432153,-0.0529 0.132292,-0.0353 0.15875,-0.13229 0.03528,-0.097 0.03528,-0.32632 v -4.73604 q 0,-0.26458 -0.03528,-0.37923 -0.03528,-0.11466 -0.16757,-0.14993 -0.123472,-0.0441 -0.423333,-0.0617 -0.0088,-0.0882 0,-0.17639 0.220486,0 0.370417,0.009 0.15875,0 0.361597,0.009 0.211666,0 0.573263,0 0.379236,0 0.767292,0 0.388055,-0.009 0.723194,-0.009 0.335139,0 0.555625,0 0.220486,-0.009 0.255763,-0.009 0.05292,0.50271 0.149931,1.06715 -0.09701,0.009 -0.176389,0 -0.07056,-0.23812 -0.149931,-0.37923 -0.07937,-0.14993 -0.167569,-0.22931 -0.114653,-0.10583 -0.291041,-0.14111 -0.16757,-0.0353 -0.423333,-0.0353 h -1.217083 v 2.57528 h 0.926041 q 0.30868,0 0.458611,-0.0353 0.14993,-0.0353 0.211666,-0.17639 0.06174,-0.14993 0.105834,-0.47625 0.09701,-0.009 0.185208,0 0,0.0617 -0.0088,0.30868 -0.0088,0.23813 -0.0088,0.53799 0,0.2734 0.0088,0.52035 0.0088,0.23812 0.0088,0.3175 -0.07937,0.009 -0.185208,0 -0.03528,-0.35278 -0.09701,-0.49389 -0.06174,-0.14993 -0.202847,-0.18521 -0.141111,-0.0353 -0.423333,-0.0353 h -0.978958 v 2.76931 h 1.172985 q 0.3175,0 0.537986,-0.0353 0.229306,-0.0441 0.352778,-0.16757 0.08819,-0.0882 0.185208,-0.28222 0.105833,-0.19403 0.211667,-0.45861 0.07937,-0.009 0.167569,0 -0.07056,0.35277 -0.123472,0.67909 -0.0441,0.32632 -0.07056,0.53799 -0.291041,0 -0.670277,0 -0.379236,0 -0.767291,0 -0.388056,-0.009 -0.705556,-0.009 -0.3175,0 -0.485069,0 -0.299861,0 -0.493889,0.009 -0.185208,0 -0.326319,0 -0.141111,0.009 -0.3175,0.009 z m 6.676319,0 q -0.0088,-0.0882 0,-0.17639 0.299861,-0.0265 0.432153,-0.0529 0.132291,-0.0265 0.167569,-0.12347 0.03528,-0.10583 0.03528,-0.33514 v -4.73604 q 0,-0.2734 -0.03528,-0.38805 -0.03528,-0.11466 -0.167569,-0.14993 -0.132292,-0.0353 -0.432153,-0.0529 -0.0088,-0.0882 0,-0.17639 0.132292,0 0.3175,0.009 0.185208,0 0.370416,0.009 0.185209,0 0.299861,0 0.114653,0 0.299861,0 0.185209,-0.009 0.370417,-0.009 0.194028,-0.009 0.30868,-0.009 0.0088,0.0882 0,0.17639 -0.299861,0.0176 -0.432152,0.0529 -0.132292,0.0353 -0.16757,0.13229 -0.02646,0.097 -0.02646,0.32632 v 2.14312 h 3.518957 v -2.06375 q 0,-0.2734 -0.03528,-0.38805 -0.02646,-0.11466 -0.15875,-0.14993 -0.123472,-0.0353 -0.423333,-0.0529 -0.0088,-0.0882 0,-0.17639 0.123472,0 0.299861,0.009 0.185208,0 0.370416,0.009 0.194028,0 0.308681,0 0.185208,0 0.485069,-0.009 0.299861,-0.009 0.493888,-0.009 0.0088,0.0882 0,0.17639 -0.299861,0.0176 -0.432152,0.0529 -0.132292,0.0353 -0.16757,0.13229 -0.03528,0.097 -0.03528,0.32632 v 4.73604 q 0,0.26458 0.02646,0.37923 0.03528,0.11466 0.167569,0.14993 0.132292,0.0353 0.440972,0.0617 0.0088,0.0882 0,0.17639 -0.194027,0 -0.502708,-0.009 -0.30868,-0.009 -0.485069,-0.009 -0.176389,0 -0.47625,0.009 -0.291041,0.009 -0.485069,0.009 -0.0088,-0.0882 0,-0.17639 0.291042,-0.0265 0.414514,-0.0529 0.132291,-0.0265 0.15875,-0.12347 0.03528,-0.10583 0.03528,-0.33514 v -2.39007 h -3.518957 v 2.3107 q 0,0.26458 0.02646,0.38805 0.03528,0.11466 0.16757,0.14993 0.132291,0.0265 0.432152,0.0529 0.0088,0.0882 0,0.17639 -0.123472,0 -0.3175,-0.009 -0.185208,0 -0.370416,0 -0.176389,-0.009 -0.299861,-0.009 -0.114653,0 -0.299861,0.009 -0.185208,0 -0.370416,0 -0.176389,0.009 -0.308681,0.009 z m 9.172221,0 q -0.0088,-0.0882 0,-0.17639 0.299861,-0.0265 0.432153,-0.0529 0.132291,-0.0353 0.15875,-0.13229 0.03528,-0.097 0.03528,-0.32632 v -4.73604 q 0,-0.26458 -0.03528,-0.37923 -0.03528,-0.11466 -0.16757,-0.14993 -0.123472,-0.0441 -0.423333,-0.0617 -0.0088,-0.0882 0,-0.17639 0.220486,0 0.370417,0.009 0.15875,0 0.361597,0.009 0.211666,0 0.573263,0 0.379236,0 0.767292,0 0.388055,-0.009 0.723194,-0.009 0.335138,0 0.555624,0 0.220486,-0.009 0.255764,-0.009 0.05292,0.50271 0.149931,1.06715 -0.09701,0.009 -0.176389,0 -0.07056,-0.23812 -0.149931,-0.37923 -0.07937,-0.14993 -0.167569,-0.22931 -0.114653,-0.10583 -0.291042,-0.14111 -0.167569,-0.0353 -0.423333,-0.0353 h -1.217082 v 2.57528 h 0.926041 q 0.30868,0 0.458611,-0.0353 0.14993,-0.0353 0.211666,-0.17639 0.06174,-0.14993 0.105834,-0.47625 0.09701,-0.009 0.185208,0 0,0.0617 -0.0088,0.30868 -0.0088,0.23813 -0.0088,0.53799 0,0.2734 0.0088,0.52035 0.0088,0.23812 0.0088,0.3175 -0.07937,0.009 -0.185208,0 -0.03528,-0.35278 -0.09701,-0.49389 -0.06174,-0.14993 -0.202847,-0.18521 -0.141111,-0.0353 -0.423334,-0.0353 h -0.978957 v 2.76931 h 1.172985 q 0.3175,0 0.537986,-0.0353 0.229305,-0.0441 0.352778,-0.16757 0.08819,-0.0882 0.185208,-0.28222 0.105833,-0.19403 0.211666,-0.45861 0.07938,-0.009 0.16757,0 -0.07056,0.35277 -0.123472,0.67909 -0.0441,0.32632 -0.07056,0.53799 -0.291041,0 -0.670277,0 -0.379236,0 -0.767292,0 -0.388055,-0.009 -0.705555,-0.009 -0.3175,0 -0.485069,0 -0.299861,0 -0.493889,0.009 -0.185208,0 -0.326319,0 -0.141111,0.009 -0.3175,0.009 z m 5.759098,0 q -0.0088,-0.0882 0,-0.17639 0.291041,-0.0265 0.432152,-0.0617 0.149931,-0.0441 0.238125,-0.1852 0.08819,-0.14994 0.202847,-0.47625 l 1.957916,-5.27403 q 0.07055,-0.0265 0.167569,-0.0353 0.105834,-0.0176 0.16757,-0.0176 l 1.975554,5.37986 q 0.114653,0.30868 0.185208,0.44097 0.07937,0.1323 0.220486,0.16757 0.141111,0.0353 0.440972,0.0617 0.0088,0.0882 0,0.17639 -0.229305,0 -0.520347,-0.009 -0.282222,-0.009 -0.520347,-0.009 -0.246944,0 -0.46743,0.009 -0.211666,0.009 -0.458611,0.009 -0.0088,-0.0882 0,-0.17639 0.308681,-0.0265 0.405695,-0.0529 0.105833,-0.0353 0.105833,-0.15875 0,-0.0441 -0.01764,-0.10583 -0.01764,-0.0706 -0.05292,-0.16757 l -0.608541,-1.70215 h -2.099027 l -0.573263,1.60514 q -0.08819,0.23812 -0.08819,0.34395 0,0.14112 0.132292,0.17639 0.132291,0.0353 0.432152,0.0617 0.0088,0.0882 0,0.17639 -0.220486,0 -0.432152,-0.009 -0.202847,-0.009 -0.423333,-0.009 -0.176389,0 -0.396875,0.009 -0.211667,0.009 -0.405694,0.009 z m 1.852082,-2.63701 h 1.89618 l -0.9525,-2.65466 z m 7.796388,-0.24695 -0.220486,-0.0176 v 2.13431 q 0,0.26458 0.03528,0.38805 0.03528,0.11466 0.167569,0.14993 0.141111,0.0265 0.458611,0.0529 0.0088,0.0882 0,0.17639 -0.123472,0 -0.326319,-0.009 -0.194028,0 -0.388055,0 -0.185209,-0.009 -0.308681,-0.009 -0.114652,0 -0.30868,0.009 -0.185208,0 -0.370417,0 -0.185208,0.009 -0.30868,0.009 -0.0088,-0.0882 0,-0.17639 0.30868,-0.0265 0.440972,-0.0529 0.141111,-0.0265 0.167569,-0.12347 0.03528,-0.10583 0.03528,-0.33514 v -4.74486 q 0,-0.26458 -0.03528,-0.37923 -0.03528,-0.11466 -0.176388,-0.14993 -0.132292,-0.0353 -0.432153,-0.0529 -0.0088,-0.0882 0,-0.17639 0.123472,0 0.30868,0.009 0.194028,0 0.379236,0.009 0.194028,0 0.308681,0 0.114652,0 0.343958,0 0.229305,-0.009 0.458611,-0.009 0.229305,-0.009 0.335138,-0.009 0.502709,0 0.934861,0.14993 0.432153,0.14993 0.696736,0.48507 0.273402,0.32632 0.273402,0.88195 0,0.65263 -0.388055,1.05833 -0.388055,0.40569 -1.040694,0.60854 v 0.0265 q 0.123472,0.0617 0.229306,0.15875 0.114652,0.0882 0.255763,0.26458 0.105834,0.13229 0.299861,0.42333 0.202847,0.29105 0.423333,0.635 0.229306,0.33514 0.414514,0.62618 0.202847,0.3175 0.343958,0.45861 0.141111,0.1323 0.308681,0.17639 0.167569,0.0353 0.449791,0.0617 0.0088,0.0882 0,0.17639 -0.123472,0 -0.3175,-0.009 -0.194027,0 -0.379236,0 -0.176388,-0.009 -0.273402,-0.009 -0.105834,0 -0.202847,0.009 -0.09701,0 -0.194028,0 -0.09701,-0.16757 -0.282222,-0.45861 -0.185208,-0.29986 -0.414514,-0.65264 -0.229305,-0.35278 -0.458611,-0.68792 -0.220486,-0.34396 -0.396874,-0.58208 -0.149931,-0.21167 -0.264584,-0.30868 -0.114652,-0.097 -0.246944,-0.13229 -0.123472,-0.0353 -0.335139,-0.0529 z m -0.220486,-0.28222 q 0.114653,0.0176 0.202847,0.0265 0.08819,0 0.16757,0 0.705555,0 1.128888,-0.34396 0.432153,-0.35278 0.432153,-1.09361 0,-0.66146 -0.361597,-1.00542 -0.361597,-0.35277 -1.067153,-0.35277 -0.220486,0 -0.502708,0.0264 z m 5.891388,3.1309 q -0.0088,-0.28222 -0.01764,-0.61736 0,-0.34396 -0.02646,-0.71437 0.0441,-0.009 0.07937,-0.009 0.0441,0 0.08819,0 0.09701,0.59972 0.493889,0.91722 0.405694,0.30868 0.926041,0.30868 0.546805,0 0.837847,-0.3175 0.291041,-0.3175 0.291041,-0.82021 0,-0.39687 -0.167569,-0.67028 -0.16757,-0.28222 -0.467431,-0.50271 -0.291041,-0.2293 -0.661458,-0.45861 -0.343958,-0.22048 -0.670277,-0.45861 -0.3175,-0.24694 -0.520347,-0.56444 -0.202847,-0.3175 -0.202847,-0.76729 0,-0.46743 0.229305,-0.82021 0.238125,-0.35278 0.643819,-0.54681 0.414514,-0.20284 0.934861,-0.20284 0.15875,0 0.282222,0.0176 0.132292,0.0176 0.299861,0.0353 0.167569,0.0176 0.273403,0.0265 0.105833,0.009 0.194027,0.009 0.01764,0 0.06174,0 0.0441,0 0.105833,-0.009 l 0.07055,1.25236 q -0.05292,0.009 -0.09701,0.0176 -0.03528,0 -0.07937,0 -0.0441,-0.28222 -0.15875,-0.50271 -0.105834,-0.22048 -0.246945,-0.34395 -0.14993,-0.1323 -0.370416,-0.19403 -0.220486,-0.0617 -0.432153,-0.0617 -0.458611,0 -0.767291,0.2734 -0.299861,0.26459 -0.299861,0.75848 0,0.36159 0.167569,0.62618 0.16757,0.25576 0.449792,0.47625 0.282222,0.21166 0.634999,0.44097 0.343959,0.22048 0.670278,0.48507 0.326319,0.25576 0.529166,0.59972 0.211667,0.33514 0.211667,0.82021 0,0.43215 -0.194028,0.81139 -0.194027,0.37041 -0.590902,0.60854 -0.396875,0.2293 -1.005416,0.2293 -0.132292,0 -0.299861,-0.0176 -0.15875,-0.0176 -0.47625,-0.0529 -0.264583,-0.0353 -0.423333,-0.0441 -0.149931,-0.0176 -0.299861,-0.0176 z m 5.044718,0.0353 q -0.0088,-0.0882 0,-0.17639 0.291041,-0.0265 0.432152,-0.0617 0.149931,-0.0441 0.238125,-0.1852 0.08819,-0.14994 0.202847,-0.47625 l 1.957916,-5.27403 q 0.07055,-0.0265 0.167569,-0.0353 0.105834,-0.0176 0.16757,-0.0176 l 1.975554,5.37986 q 0.114653,0.30868 0.185208,0.44097 0.07937,0.1323 0.220486,0.16757 0.141111,0.0353 0.440972,0.0617 0.0088,0.0882 0,0.17639 -0.229305,0 -0.520347,-0.009 -0.282222,-0.009 -0.520347,-0.009 -0.246944,0 -0.46743,0.009 -0.211666,0.009 -0.458611,0.009 -0.0088,-0.0882 0,-0.17639 0.308681,-0.0265 0.405695,-0.0529 0.105833,-0.0353 0.105833,-0.15875 0,-0.0441 -0.01764,-0.10583 -0.01764,-0.0706 -0.05292,-0.16757 l -0.608541,-1.70215 h -2.099027 l -0.573263,1.60514 q -0.08819,0.23812 -0.08819,0.34395 0,0.14112 0.132292,0.17639 0.132291,0.0353 0.432152,0.0617 0.0088,0.0882 0,0.17639 -0.220486,0 -0.432152,-0.009 -0.202847,-0.009 -0.423333,-0.009 -0.176389,0 -0.396875,0.009 -0.211667,0.009 -0.405694,0.009 z m 1.852082,-2.63701 h 1.89618 l -0.9525,-2.65466 z m 6.244171,2.63701 q -0.0088,-0.0882 0,-0.17639 0.299861,-0.0265 0.432152,-0.0529 0.132292,-0.0353 0.15875,-0.13229 0.03528,-0.097 0.03528,-0.32632 v -4.73604 q 0,-0.26458 -0.03528,-0.37923 -0.03528,-0.11466 -0.167569,-0.14993 -0.123472,-0.0441 -0.423333,-0.0617 -0.0088,-0.0882 0,-0.17639 0.202847,0 0.502708,0.009 0.299861,0.009 0.476249,0.009 0.114653,0 0.299861,0 0.185209,-0.009 0.370417,-0.009 0.194028,-0.009 0.3175,-0.009 0.0088,0.0882 0,0.17639 -0.308681,0.0265 -0.440972,0.0529 -0.132292,0.0265 -0.16757,0.12347 -0.02646,0.097 -0.02646,0.33514 v 4.70076 q 0,0.22049 0,0.35278 0,0.12347 0.0088,0.16757 h 1.287638 q 0.30868,0 0.502708,-0.0441 0.194028,-0.0441 0.30868,-0.17639 0.09701,-0.10583 0.202847,-0.30868 0.114653,-0.21167 0.202847,-0.51153 0.07937,-0.009 0.15875,0 -0.07055,0.39688 -0.132291,0.74965 -0.05292,0.35278 -0.08819,0.56445 -0.414513,0 -0.908402,0 -0.485069,-0.009 -0.978958,-0.009 -0.485069,0 -0.899583,0 -0.123472,0 -0.30868,0.009 -0.185208,0 -0.370416,0 -0.185209,0.009 -0.3175,0.009 z m 10.177628,-0.0353 q -0.0088,-0.28222 -0.01764,-0.61736 0,-0.34396 -0.02646,-0.71437 0.0441,-0.009 0.07938,-0.009 0.0441,0 0.08819,0 0.09701,0.59972 0.493888,0.91722 0.405695,0.30868 0.926041,0.30868 0.546806,0 0.837847,-0.3175 0.291042,-0.3175 0.291042,-0.82021 0,-0.39687 -0.16757,-0.67028 -0.167569,-0.28222 -0.46743,-0.50271 -0.291041,-0.2293 -0.661458,-0.45861 -0.343958,-0.22048 -0.670277,-0.45861 -0.3175,-0.24694 -0.520347,-0.56444 -0.202847,-0.3175 -0.202847,-0.76729 0,-0.46743 0.229305,-0.82021 0.238125,-0.35278 0.643819,-0.54681 0.414514,-0.20284 0.934861,-0.20284 0.15875,0 0.282222,0.0176 0.132291,0.0176 0.299861,0.0353 0.167569,0.0176 0.273402,0.0265 0.105834,0.009 0.194028,0.009 0.01764,0 0.06174,0 0.0441,0 0.105833,-0.009 l 0.07056,1.25236 q -0.05292,0.009 -0.09701,0.0176 -0.03528,0 -0.07937,0 -0.0441,-0.28222 -0.15875,-0.50271 -0.105833,-0.22048 -0.246944,-0.34395 -0.14993,-0.1323 -0.370416,-0.19403 -0.220486,-0.0617 -0.432153,-0.0617 -0.458611,0 -0.767291,0.2734 -0.299861,0.26459 -0.299861,0.75848 0,0.36159 0.167569,0.62618 0.167569,0.25576 0.449792,0.47625 0.282222,0.21166 0.634999,0.44097 0.343958,0.22048 0.670278,0.48507 0.326319,0.25576 0.529166,0.59972 0.211667,0.33514 0.211667,0.82021 0,0.43215 -0.194028,0.81139 -0.194028,0.37041 -0.590903,0.60854 -0.396874,0.2293 -1.005416,0.2293 -0.132291,0 -0.299861,-0.0176 -0.15875,-0.0176 -0.476249,-0.0529 -0.264584,-0.0353 -0.423334,-0.0441 -0.14993,-0.0176 -0.299861,-0.0176 z m 6.870345,0.0353 q -0.0088,-0.0882 0,-0.17639 0.3175,-0.0265 0.449791,-0.0529 0.141111,-0.0265 0.16757,-0.12347 0.03528,-0.10583 0.03528,-0.33514 v -5.22993 h -1.120068 q -0.352778,0 -0.529167,0.0794 -0.176389,0.0794 -0.273402,0.28222 -0.09701,0.19403 -0.202848,0.57326 -0.07937,0.009 -0.167569,0 0.0441,-0.30868 0.07937,-0.62618 0.03528,-0.32631 0.06174,-0.5909 0.414514,0.0176 0.996597,0.0265 0.582083,0 1.516943,0 0.9525,0 1.525764,0 0.573263,-0.009 0.987777,-0.0265 0.01764,0.25577 0.05292,0.58209 0.03528,0.32631 0.07056,0.63499 -0.09701,0.009 -0.176389,0 -0.114653,-0.37923 -0.211666,-0.58208 -0.09701,-0.20285 -0.273403,-0.2734 -0.167569,-0.0794 -0.520347,-0.0794 H 94.79705 v 5.15056 q 0,0.26458 0.02646,0.38805 0.03528,0.11466 0.167569,0.14993 0.141111,0.0265 0.458611,0.0529 0.0088,0.0882 0,0.17639 -0.132291,0 -0.326319,-0.009 -0.185208,0 -0.370417,0 -0.185208,-0.009 -0.30868,-0.009 -0.185208,0 -0.493889,0.009 -0.30868,0.009 -0.511527,0.009 z m 5.750271,-6.19125 q 0.194028,0 0.493889,0.009 0.299861,0.009 0.485064,0.009 0.18521,0 0.48507,-0.009 0.30868,-0.009 0.50271,-0.009 0.009,0.0794 0,0.16757 -0.29104,0.0265 -0.42333,0.0617 -0.13229,0.0265 -0.16757,0.12347 -0.0353,0.097 -0.0353,0.32632 v 3.16618 q 0,1.03187 0.44979,1.56986 0.45861,0.52916 1.33174,0.52916 0.91722,0 1.37583,-0.58208 0.46743,-0.58208 0.46743,-1.70215 v -2.83104 q 0,-0.29986 -0.0353,-0.42333 -0.0353,-0.12348 -0.17638,-0.15875 -0.14112,-0.0441 -0.46744,-0.0706 -0.009,-0.0882 0,-0.16757 0.17639,0 0.42334,0.009 0.25576,0 0.40569,0 0.15875,0 0.39688,0 0.23812,-0.009 0.41451,-0.009 0.009,0.0794 0,0.16757 -0.29986,0.0265 -0.43215,0.0617 -0.13229,0.0353 -0.16757,0.14111 -0.0353,0.10583 -0.0353,0.37041 v 3.04271 q 0,1.13771 -0.57326,1.81681 -0.57327,0.67909 -1.77271,0.67909 -1.04951,0 -1.68451,-0.57326 -0.626183,-0.57327 -0.626183,-1.6757 v -3.28083 q 0,-0.26458 -0.03528,-0.37923 -0.02646,-0.11466 -0.15875,-0.14993 -0.132292,-0.0353 -0.440972,-0.0617 -0.0088,-0.0794 0,-0.16757 z m 9.666113,0.0176 q 0.16757,0 0.39687,0 0.23813,-0.009 0.47625,-0.009 0.23813,-0.009 0.39688,-0.009 1.82562,0 2.80458,0.78493 0.98778,0.78493 0.98778,2.29306 0,0.8202 -0.28223,1.41993 -0.28222,0.5909 -0.78493,0.97895 -0.5027,0.37924 -1.1818,0.56445 -0.67028,0.17639 -1.45521,0.17639 -0.33514,0 -0.73201,-0.0265 -0.38806,-0.0176 -0.65264,-0.0176 -0.11465,0 -0.30868,0.009 -0.18521,0 -0.37924,0 -0.18521,0.009 -0.3175,0.009 -0.009,-0.0882 0,-0.17639 0.29986,-0.0265 0.43216,-0.0529 0.13229,-0.0265 0.15874,-0.12347 0.0353,-0.10583 0.0353,-0.33514 v -4.73604 q 0,-0.26458 -0.0441,-0.37923 -0.0353,-0.11466 -0.16757,-0.14993 -0.1323,-0.0441 -0.43216,-0.0617 -0.009,-0.0882 0,-0.17639 0.22049,0 0.51153,0.009 0.29104,0.009 0.53799,0.009 z m 0.29986,0.28222 v 5.54743 q 0.28222,0.0529 0.56444,0.0794 0.29104,0.0265 0.55563,0.0265 1.43757,0 2.16076,-0.73201 0.72319,-0.73201 0.72319,-2.01083 0,-1.36702 -0.81138,-2.15195 -0.81139,-0.79375 -2.36361,-0.79375 -0.23813,0 -0.48507,0.0176 -0.23813,0.009 -0.34396,0.0176 z m 8.73124,0.38806 v 4.73604 q 0,0.26458 0.0265,0.38805 0.0265,0.11466 0.15875,0.14993 0.13229,0.0265 0.44979,0.0529 0.009,0.0882 0,0.17639 -0.19402,0 -0.5027,-0.009 -0.30868,-0.009 -0.48507,-0.009 -0.19403,0 -0.49389,0.009 -0.29986,0.009 -0.50271,0.009 -0.009,-0.0882 0,-0.17639 0.30868,-0.0265 0.44097,-0.0529 0.14111,-0.0265 0.16757,-0.12347 0.0353,-0.10583 0.0353,-0.33514 v -4.73604 q 0,-0.26458 -0.0353,-0.37923 -0.0353,-0.11466 -0.16757,-0.14993 -0.13229,-0.0441 -0.44097,-0.0617 -0.009,-0.0882 0,-0.17639 0.13229,0 0.3175,0.009 0.19403,0 0.37924,0.009 0.1852,0 0.30868,0 0.12347,0 0.29986,0 0.18521,-0.009 0.37041,-0.009 0.18521,-0.009 0.30868,-0.009 0.009,0.0882 0,0.17639 -0.30868,0.0265 -0.44097,0.0529 -0.13229,0.0265 -0.16757,0.12347 -0.0265,0.097 -0.0265,0.33514 z m 9.63965,2.36361 q 0,0.9525 -0.39687,1.68451 -0.39687,0.72319 -1.12007,1.13771 -0.72319,0.41451 -1.71097,0.41451 -0.97896,0 -1.68451,-0.40569 -0.70556,-0.4057 -1.08479,-1.11125 -0.37924,-0.71438 -0.37924,-1.62278 0,-0.93486 0.39687,-1.66687 0.39688,-0.73202 1.12007,-1.14653 0.73202,-0.42333 1.71979,-0.42333 0.97014,0 1.66688,0.40569 0.70555,0.39688 1.08479,1.11125 0.38805,0.70556 0.38805,1.62278 z m -0.78493,0.0882 q 0,-0.55562 -0.13229,-1.08479 -0.13229,-0.52917 -0.41451,-0.9525 -0.28222,-0.42333 -0.74083,-0.67028 -0.45861,-0.25576 -1.11125,-0.25576 -0.65264,0 -1.11125,0.25576 -0.45861,0.24695 -0.74084,0.67028 -0.28222,0.42333 -0.41451,0.94368 -0.13229,0.51153 -0.13229,1.0407 0,0.52916 0.13229,1.04951 0.13229,0.52035 0.42333,0.9525 0.29105,0.43215 0.75848,0.68791 0.46743,0.25577 1.12888,0.25577 0.65264,0 1.10243,-0.24695 0.45862,-0.24694 0.73202,-0.65263 0.2734,-0.41452 0.39687,-0.93487 0.12347,-0.52034 0.12347,-1.05833 z"
         id="text4"
         aria-label="Rehearsal Studio" />
    </g>
  </g>
</svg>
